<?xml version="1.0" standalone="no"?><!DOCTYPE svg PUBLIC "-//W3C//DTD SVG 1.1//EN" "http://www.w3.org/Graphics/SVG/1.1/DTD/svg11.dtd"><svg t="1602377536046" class="icon" viewBox="0 0 1024 1024" version="1.1" xmlns="http://www.w3.org/2000/svg" p-id="5131" xmlns:xlink="http://www.w3.org/1999/xlink" width="32" height="32"><defs><style type="text/css"></style></defs><path d="M384 0v96a542.656 542.656 0 0 1 384.672 159.328A542.4 542.4 0 0 1 928.032 640h96c0-353.472-286.528-640-640-640z" p-id="5132"></path><path d="M384 192v96c94.016 0 182.432 36.608 248.896 103.104S736 545.984 736 640h96c0-247.424-200.576-448-448-448z" p-id="5133"></path><path d="M480 384l-64 64-224 64-192 416 25.376 25.376 232.8-232.8a64 64 0 1 1 45.248 45.248l-232.8 232.8L96 1024l416-192 64-224 64-64-160-160z" p-id="5134"></path></svg>