<?xml version="1.0" standalone="no"?><!DOCTYPE svg PUBLIC "-//W3C//DTD SVG 1.1//EN" "http://www.w3.org/Graphics/SVG/1.1/DTD/svg11.dtd"><svg t="1602455304862" class="icon" viewBox="0 0 1024 1024" version="1.1" xmlns="http://www.w3.org/2000/svg" p-id="7258" width="20" height="20" xmlns:xlink="http://www.w3.org/1999/xlink"><defs><style type="text/css"></style></defs><path d="M451.5 561.6c-57 0-110.4-24.3-150.4-68.4-39.1-43.3-60.7-100.5-60.7-161.2s21.6-118 60.7-161.2c40-44.1 93.4-68.4 150.4-68.4s110.4 24.3 150.4 68.4C641 214 662.5 271.3 662.5 332s-21.6 118-60.7 161.2c-39.9 44.1-93.3 68.4-150.3 68.4z m0-393.1c-79.9 0-144.9 73.4-144.9 163.5s65 163.5 144.9 163.5S596.4 422.1 596.4 332s-65-163.5-144.9-163.5z" p-id="7259"></path><path d="M785.6 923.4c-18.3 0-33.1-14.8-33.1-33.1v-85.5c0-56.7-21.7-110.2-61.1-150.6-39.2-40.1-90.9-62.2-145.7-62.2H357.3c-54.8 0-106.6 22.1-145.7 62.2-39.4 40.4-61.1 93.8-61.1 150.6v85.5c0 18.3-14.8 33.1-33.1 33.1s-33.1-14.8-33.1-33.1v-85.5c0-74.1 28.4-143.9 79.9-196.7 25.1-25.7 54.3-45.9 86.7-60 33.8-14.7 69.5-22.1 106.3-22.1h188.4c36.8 0 72.6 7.5 106.3 22.1 32.5 14.1 61.7 34.3 86.7 60 51.5 52.8 79.9 122.6 79.9 196.7v85.5c0.1 18.3-14.7 33.1-32.9 33.1z" p-id="7260"></path><path d="M676 532.2c-7.2 0-14.3-3.5-18.5-10-6.6-10.2-3.7-23.9 6.5-30.5 50.8-33 82.4-96.7 82.4-166.2 0-16.9-1.8-33.6-5.5-49.7-2.7-11.9 4.8-23.7 16.6-26.4 11.9-2.7 23.7 4.8 26.4 16.6 4.4 19.3 6.6 39.3 6.6 59.4 0 84.3-39.3 162.1-102.5 203.2-3.7 2.4-7.8 3.6-12 3.6z" p-id="7261"></path><path d="M917 854.2c-12.2 0-22-9.9-22-22v-33c0-70.6-23.2-137-65.3-187-41.2-48.9-95.4-75.8-152.5-75.8-12.2 0-22-9.9-22-22 0-12.2 9.9-22 22-22 35.7 0 70.4 8.4 103.1 24.8 31.2 15.7 59.2 38.2 83.2 66.7 48.8 57.9 75.6 134.4 75.6 215.4v33c-0.1 12-9.9 21.9-22.1 21.9z" p-id="7262"></path></svg>