<?xml version="1.0" standalone="no"?><!DOCTYPE svg PUBLIC "-//W3C//DTD SVG 1.1//EN" "http://www.w3.org/Graphics/SVG/1.1/DTD/svg11.dtd"><svg t="1602455142462" class="icon" viewBox="0 0 1025 1024" version="1.1" xmlns="http://www.w3.org/2000/svg" p-id="4686" xmlns:xlink="http://www.w3.org/1999/xlink" width="20.01953125" height="20"><defs><style type="text/css"></style></defs><path d="M700.041216 972.8c-3.413333 0-6.826667 0-10.24-3.413333l-375.466667-238.933334c-6.826667-3.413333-10.24-13.653333-3.413333-23.893333 6.826667-6.826667 17.066667-10.24 23.893333-6.826667l361.813334 228.693334 290.133333-515.413334-259.413333-160.426666c-10.24-3.413333-13.653333-13.653333-6.826667-23.893334 3.413333-6.826667 17.066667-10.24 23.893333-6.826666l273.066667 170.666666c6.826667 3.413333 10.24 13.653333 6.826667 23.893334l-307.2 546.133333c-3.413333 3.413333-6.826667 6.826667-10.24 6.826667-3.413333 3.413333-6.826667 3.413333-6.826667 3.413333z" fill="" p-id="4687"></path><path d="M730.761216 733.866667c-6.826667 0-13.653333-3.413333-13.653333-10.24L495.241216 276.48l-139.946667 276.48c-3.413333 3.413333-6.826667 10.24-13.653333 10.24s-10.24 0-13.653333-6.826667l-105.813334-119.466666-191.146666 290.133333c-6.826667 6.826667-17.066667 10.24-23.893334 3.413333-6.826667-3.413333-10.24-13.653333-3.413333-23.893333l204.8-307.2c3.413333-3.413333 6.826667-6.826667 13.653333-6.826667s10.24 3.413333 13.653334 6.826667l102.4 116.053333 143.36-283.306666c3.413333-6.826667 10.24-10.24 13.653333-10.24 6.826667 0 13.653333 3.413333 13.653333 10.24l235.52 477.866666c3.413333 6.826667 0 17.066667-6.826666 23.893334h-6.826667z" fill="" p-id="4688"></path><path d="M734.174549 733.866667H17.374549c-10.24 0-17.066667-6.826667-17.066666-17.066667V68.266667c0-10.24 6.826667-17.066667 17.066666-17.066667h716.8c10.24 0 17.066667 6.826667 17.066667 17.066667v648.533333c0 10.24-6.826667 17.066667-17.066667 17.066667zM34.441216 699.733333h682.666667v-614.4H34.441216v614.4z" fill="" p-id="4689"></path><path d="M222.174549 324.266667C174.387883 324.266667 136.841216 286.72 136.841216 238.933333s37.546667-85.333333 85.333333-85.333333S307.507883 191.146667 307.507883 238.933333 269.961216 324.266667 222.174549 324.266667z m0-136.533334C194.867883 187.733333 170.974549 211.626667 170.974549 238.933333s23.893333 51.2 51.2 51.2S273.374549 266.24 273.374549 238.933333s-23.893333-51.2-51.2-51.2z" fill="" p-id="4690"></path></svg>