<?xml version="1.0" standalone="no"?><!DOCTYPE svg PUBLIC "-//W3C//DTD SVG 1.1//EN" "http://www.w3.org/Graphics/SVG/1.1/DTD/svg11.dtd"><svg t="1602377461361" class="icon" viewBox="0 0 1024 1024" version="1.1" xmlns="http://www.w3.org/2000/svg" p-id="3564" xmlns:xlink="http://www.w3.org/1999/xlink" width="32" height="32"><defs><style type="text/css"></style></defs><path d="M896 1024H128a128 128 0 0 1-128-128V128a128 128 0 0 1 128-128h768a128 128 0 0 1 128 128v768a128 128 0 0 1-128 128z m64-896a64 64 0 0 0-64-64H128a64 64 0 0 0-64 64v768a64 64 0 0 0 64 64h768a64 64 0 0 0 64-64V128z m-69.632 722.112a32 32 0 0 1-44.512 8.256L351.712 518.656l-173.952 115.968a32 32 0 1 1-35.488-53.248l192-128h0.32a30.56 30.56 0 0 1 7.552-3.2 29.28 29.28 0 0 1 4.064-1.6 31.424 31.424 0 0 1 3.84 0 32 32 0 0 1 8.32 0 26.592 26.592 0 0 1 2.944 1.184 32.64 32.64 0 0 1 8.608 3.648h0.256l225.664 155.168 152.224-121.792 0.288 0.352a31.584 31.584 0 0 1 37.472-1.984l96 64a32 32 0 1 1-35.488 53.248l-76.544-51.008-118.816 95.04 231.232 158.976a32 32 0 0 1 8.16 44.704zM592 416A144 144 0 1 1 736 272a144 144 0 0 1-144 144z m0-224A80 80 0 1 0 672 272 80 80 0 0 0 592 192z" p-id="3565"></path></svg>