<?xml version="1.0" standalone="no"?><!DOCTYPE svg PUBLIC "-//W3C//DTD SVG 1.1//EN" "http://www.w3.org/Graphics/SVG/1.1/DTD/svg11.dtd"><svg t="1602377501203" class="icon" viewBox="0 0 1024 1024" version="1.1" xmlns="http://www.w3.org/2000/svg" p-id="4315" xmlns:xlink="http://www.w3.org/1999/xlink" width="32" height="32"><defs><style type="text/css"></style></defs><path d="M735.7 367.7c33.5-33.6 51.9-78.3 51.9-125.9 0-47.5-18.4-92.1-51.9-125.9C702.4 82.4 658 64 610.8 64c-35.4 0-69.7 10.5-98.7 30-29.1-19.5-63.4-30-98.8-30-47.2 0-91.6 18.4-125 52-33.5 33.7-51.9 78.4-51.9 125.8 0 47.6 18.5 92.3 52 125.9l169 169.6c14.6 14.6 34.1 22.7 54.7 22.7s40.1-8.1 54.8-22.7c38.2-38.5 161.5-162.3 168.8-169.6zM136 338c0-19.9-16.1-36-36-36s-36 16.1-36 36c0 107.9 38.9 212.2 109.6 293.6 63.1 72.7 147.6 123 240.7 143.7V924c0 19.9 16.1 36 36 36s36-16.1 36-36V714.4l-30.6-4.6C273.4 682.4 136 522.6 136 338zM924 302c-19.9 0-36 16.1-36 36 0 184.6-137.4 344.4-319.6 371.8l-30.6 4.6V924c0 19.9 16.1 36 36 36s36-16.1 36-36V775.3c93-20.7 177.6-71 240.7-143.7C921.1 550.2 960 445.9 960 338c0-19.9-16.1-36-36-36z" p-id="4316"></path></svg>