<?xml version="1.0" standalone="no"?><!DOCTYPE svg PUBLIC "-//W3C//DTD SVG 1.1//EN" "http://www.w3.org/Graphics/SVG/1.1/DTD/svg11.dtd"><svg t="1602455184501" class="icon" viewBox="0 0 1024 1024" version="1.1" xmlns="http://www.w3.org/2000/svg" p-id="5569" xmlns:xlink="http://www.w3.org/1999/xlink" width="20" height="20"><defs><style type="text/css"></style></defs><path d="M513.024 871.73632h-0.9216c-17.80736-0.1024-44.41088-8.90368-63.74912-28.13952l-312.30464-325.20192c-0.4096-0.4096-0.8192-0.9216-1.2288-1.4336C95.93344 468.35712 72.192 435.2 72.192 367.6672c0-58.32704 23.33184-115.01568 64.05632-155.54048C176.77312 171.70944 232.02816 149.504 291.8912 149.504h0.8192c43.59168 0.1024 85.23776 13.19936 120.44288 38.0672a21.13536 21.13536 0 0 1 5.11488 29.36832c-6.65088 9.51808-19.85024 11.76576-29.36832 5.11488-28.03712-19.74784-61.29664-30.28992-96.18944-30.28992h-0.7168c-49.32096 0-92.81024 17.39776-125.86496 50.34496-32.84992 32.74752-51.57376 78.48448-51.57376 125.66016 0 53.51936 17.19296 77.56288 52.80256 122.17856l311.28064 324.17792c11.15136 11.15136 26.91072 15.45216 34.0736 15.55456 4.70528-0.1024 11.25376-1.7408 25.57952-16.06656 3.072-2.8672 252.6464-234.74176 321.10592-319.87712 37.0432-45.94688 56.58624-91.47904 56.58624-131.49184 0-91.58144-87.08096-178.15552-179.2768-178.15552-27.72992 0-84.93056 9.82528-123.40736 46.76608-32.13312 31.00672-123.61216 123.91936-124.53376 124.84096a21.15072 21.15072 0 0 1-29.88032 0.2048 21.15072 21.15072 0 0 1-0.2048-29.88032c3.78368-3.78368 92.81024-94.14144 125.35296-125.66016 45.12768-43.18208 110.4128-58.53184 152.67328-58.53184 115.93728 0 221.44 104.99072 221.44 220.3136 0 49.73056-22.81984 104.37632-65.89952 157.89056-70.5024 87.59296-314.55744 314.25024-324.89472 323.87072-19.33312 19.33824-35.80928 27.83232-54.32832 27.83232z" p-id="5570"></path></svg>